<svg width="15" height="15" viewBox="0 0 15 15" fill="none" xmlns="http://www.w3.org/2000/svg">
<path fill-rule="evenodd" clip-rule="evenodd" d="M14.1919 2.05806C14.436 2.30214 14.436 2.69786 14.1919 2.94194L7.94194 9.19194C7.69786 9.43602 7.30214 9.43602 7.05806 9.19194L5.18306 7.31694C4.93898 7.07286 4.93898 6.67714 5.18306 6.43306C5.42714 6.18898 5.82286 6.18898 6.06694 6.43306L7.5 7.86612L13.3081 2.05806C13.5521 1.81398 13.9479 1.81398 14.1919 2.05806Z" fill="black"/>
<path fill-rule="evenodd" clip-rule="evenodd" d="M3.125 2.5C2.95924 2.5 2.80027 2.56585 2.68306 2.68306C2.56585 2.80027 2.5 2.95924 2.5 3.125V11.875C2.5 12.0408 2.56585 12.1997 2.68306 12.3169C2.80027 12.4342 2.95924 12.5 3.125 12.5H11.875C12.0408 12.5 12.1997 12.4342 12.3169 12.3169C12.4342 12.1997 12.5 12.0408 12.5 11.875V7.5C12.5 7.15482 12.7798 6.875 13.125 6.875C13.4702 6.875 13.75 7.15482 13.75 7.5V11.875C13.75 12.3723 13.5525 12.8492 13.2008 13.2008C12.8492 13.5525 12.3723 13.75 11.875 13.75H3.125C2.62772 13.75 2.15081 13.5525 1.79917 13.2008C1.44754 12.8492 1.25 12.3723 1.25 11.875V3.125C1.25 2.62772 1.44754 2.15081 1.79917 1.79917C2.15081 1.44754 2.62772 1.25 3.125 1.25H10C10.3452 1.25 10.625 1.52982 10.625 1.875C10.625 2.22018 10.3452 2.5 10 2.5H3.125Z" fill="black"/>
</svg>
