<svg width="20" height="20" viewBox="0 0 20 20" fill="none" xmlns="http://www.w3.org/2000/svg">
<path d="M12.1709 14.8333C11.9875 14.8333 11.8209 14.7667 11.6875 14.6333C11.4375 14.3667 11.4375 13.95 11.7042 13.6833L15.5375 9.99999L11.7042 6.31666C11.4375 6.06666 11.4375 5.63332 11.6875 5.36666C11.9375 5.09999 12.3709 5.09998 12.6375 5.34998L16.9709 9.51665C17.1042 9.64998 17.1709 9.81665 17.1709 9.99999C17.1709 10.1833 17.1042 10.35 16.9709 10.4833L12.6375 14.65C12.5042 14.7667 12.3375 14.8333 12.1709 14.8333ZM8.32086 14.6333C8.57086 14.3667 8.57086 13.95 8.30419 13.6833L4.47086 9.99999L8.30419 6.31666C8.57086 6.06666 8.57086 5.63332 8.32086 5.36666C8.07086 5.09999 7.63752 5.09998 7.37086 5.34998L3.03752 9.51665C2.90419 9.64998 2.83752 9.81665 2.83752 9.99999C2.83752 10.1833 2.90419 10.35 3.03752 10.4833L7.37086 14.65C7.50419 14.7667 7.67086 14.8333 7.83752 14.8333C8.02086 14.8333 8.18752 14.7667 8.32086 14.6333Z" fill="black"/>
</svg>
