<svg width="13" height="13" viewBox="0 0 13 13" fill="none" xmlns="http://www.w3.org/2000/svg">
<path fill-rule="evenodd" clip-rule="evenodd" d="M2.26413 1.62499C1.91112 1.62499 1.62496 1.91115 1.62496 2.26416V10.7358C1.62496 11.0888 1.91112 11.375 2.26413 11.375H10.7358C11.0888 11.375 11.375 11.0888 11.375 10.7358V2.26416C11.375 1.91115 11.0888 1.62499 10.7358 1.62499H2.26413ZM0.541626 2.26416C0.541626 1.31285 1.31282 0.541656 2.26413 0.541656H10.7358C11.6871 0.541656 12.4583 1.31285 12.4583 2.26416V10.7358C12.4583 11.6871 11.6871 12.4583 10.7358 12.4583H2.26413C1.31282 12.4583 0.541626 11.6871 0.541626 10.7358V2.26416Z" fill="black"/>
<path fill-rule="evenodd" clip-rule="evenodd" d="M3.79163 0.541656C4.09078 0.541656 4.33329 0.784169 4.33329 1.08332V11.9167C4.33329 12.2158 4.09078 12.4583 3.79163 12.4583C3.49247 12.4583 3.24996 12.2158 3.24996 11.9167V1.08332C3.24996 0.784169 3.49247 0.541656 3.79163 0.541656Z" fill="black"/>
<path fill-rule="evenodd" clip-rule="evenodd" d="M9.20829 0.541656C9.50745 0.541656 9.74996 0.784169 9.74996 1.08332V11.9167C9.74996 12.2158 9.50745 12.4583 9.20829 12.4583C8.90914 12.4583 8.66663 12.2158 8.66663 11.9167V1.08332C8.66663 0.784169 8.90914 0.541656 9.20829 0.541656Z" fill="black"/>
<path fill-rule="evenodd" clip-rule="evenodd" d="M0.541626 6.49999C0.541626 6.20084 0.784138 5.95832 1.08329 5.95832H11.9166C12.2158 5.95832 12.4583 6.20084 12.4583 6.49999C12.4583 6.79914 12.2158 7.04166 11.9166 7.04166H1.08329C0.784138 7.04166 0.541626 6.79914 0.541626 6.49999Z" fill="black"/>
<path fill-rule="evenodd" clip-rule="evenodd" d="M0.541626 3.79166C0.541626 3.4925 0.784138 3.24999 1.08329 3.24999H3.79163C4.09078 3.24999 4.33329 3.4925 4.33329 3.79166C4.33329 4.09081 4.09078 4.33332 3.79163 4.33332H1.08329C0.784138 4.33332 0.541626 4.09081 0.541626 3.79166Z" fill="black"/>
<path fill-rule="evenodd" clip-rule="evenodd" d="M0.541626 9.20832C0.541626 8.90917 0.784138 8.66666 1.08329 8.66666H3.79163C4.09078 8.66666 4.33329 8.90917 4.33329 9.20832C4.33329 9.50748 4.09078 9.74999 3.79163 9.74999H1.08329C0.784138 9.74999 0.541626 9.50748 0.541626 9.20832Z" fill="black"/>
<path fill-rule="evenodd" clip-rule="evenodd" d="M8.66663 9.20832C8.66663 8.90917 8.90914 8.66666 9.20829 8.66666H11.9166C12.2158 8.66666 12.4583 8.90917 12.4583 9.20832C12.4583 9.50748 12.2158 9.74999 11.9166 9.74999H9.20829C8.90914 9.74999 8.66663 9.50748 8.66663 9.20832Z" fill="black"/>
<path fill-rule="evenodd" clip-rule="evenodd" d="M8.66663 3.79166C8.66663 3.4925 8.90914 3.24999 9.20829 3.24999H11.9166C12.2158 3.24999 12.4583 3.4925 12.4583 3.79166C12.4583 4.09081 12.2158 4.33332 11.9166 4.33332H9.20829C8.90914 4.33332 8.66663 4.09081 8.66663 3.79166Z" fill="black"/>
</svg>
