<svg width="15" height="15" viewBox="0 0 15 15" fill="none" xmlns="http://www.w3.org/2000/svg">
<path fill-rule="evenodd" clip-rule="evenodd" d="M1.25 1.875C1.25 1.52982 1.52982 1.25 1.875 1.25H6.25C6.59518 1.25 6.875 1.52982 6.875 1.875V6.25C6.875 6.59518 6.59518 6.875 6.25 6.875H1.875C1.52982 6.875 1.25 6.59518 1.25 6.25V1.875ZM2.5 2.5V5.625H5.625V2.5H2.5Z" fill="black"/>
<path fill-rule="evenodd" clip-rule="evenodd" d="M8.125 1.875C8.125 1.52982 8.40482 1.25 8.75 1.25H13.125C13.4702 1.25 13.75 1.52982 13.75 1.875V6.25C13.75 6.59518 13.4702 6.875 13.125 6.875H8.75C8.40482 6.875 8.125 6.59518 8.125 6.25V1.875ZM9.375 2.5V5.625H12.5V2.5H9.375Z" fill="black"/>
<path fill-rule="evenodd" clip-rule="evenodd" d="M8.125 8.75C8.125 8.40482 8.40482 8.125 8.75 8.125H13.125C13.4702 8.125 13.75 8.40482 13.75 8.75V13.125C13.75 13.4702 13.4702 13.75 13.125 13.75H8.75C8.40482 13.75 8.125 13.4702 8.125 13.125V8.75ZM9.375 9.375V12.5H12.5V9.375H9.375Z" fill="black"/>
<path fill-rule="evenodd" clip-rule="evenodd" d="M1.25 8.75C1.25 8.40482 1.52982 8.125 1.875 8.125H6.25C6.59518 8.125 6.875 8.40482 6.875 8.75V13.125C6.875 13.4702 6.59518 13.75 6.25 13.75H1.875C1.52982 13.75 1.25 13.4702 1.25 13.125V8.75ZM2.5 9.375V12.5H5.625V9.375H2.5Z" fill="black"/>
</svg>
