<svg width="17" height="13" viewBox="0 0 17 13" fill="none" xmlns="http://www.w3.org/2000/svg">
<path d="M1.84406 3.38055C2.86244 3.38055 3.68799 2.62379 3.68799 1.69027C3.68799 0.756762 2.86244 0 1.84406 0C0.82568 0 0.00012207 0.756762 0.00012207 1.69027C0.00012207 2.62379 0.82568 3.38055 1.84406 3.38055Z" fill="black"/>
<path d="M1.84394 8.03015C2.86231 8.03015 3.68787 7.27338 3.68787 6.33987C3.68787 5.40636 2.86231 4.6496 1.84394 4.6496C0.825558 4.6496 0 5.40636 0 6.33987C0 7.27338 0.825558 8.03015 1.84394 8.03015Z" fill="black"/>
<path d="M1.84394 12.8201C2.86231 12.8201 3.68787 12.0633 3.68787 11.1298C3.68787 10.1963 2.86231 9.43954 1.84394 9.43954C0.825558 9.43954 0 10.1963 0 11.1298C0 12.0633 0.825558 12.8201 1.84394 12.8201Z" fill="black"/>
<path d="M5.7925 2.79624H15.8078C15.8973 2.79624 15.9835 2.76354 16.0469 2.70542C16.1103 2.6473 16.146 2.56841 16.146 2.48627L16.1457 0.894414C16.1457 0.723309 15.9942 0.584442 15.8075 0.584442H5.7925C5.60584 0.584442 5.45435 0.723309 5.45435 0.894414V2.48627C5.45435 2.65738 5.60567 2.79624 5.7925 2.79624Z" fill="black"/>
<path d="M15.8068 5.23389H5.79176C5.6051 5.23389 5.45361 5.37275 5.45361 5.54386V7.13572C5.45361 7.30682 5.6051 7.44569 5.79176 7.44569H15.8071C15.8966 7.44569 15.9828 7.41299 16.0462 7.35487C16.1096 7.29675 16.1453 7.2177 16.1453 7.13572L16.1449 5.54386C16.1449 5.37275 15.9938 5.23389 15.8068 5.23389Z" fill="black"/>
<path d="M15.8068 10.0239H5.79176C5.6051 10.0239 5.45361 10.1627 5.45361 10.3338V11.9257C5.45361 12.0968 5.6051 12.2357 5.79176 12.2357H15.8071C15.8966 12.2357 15.9828 12.203 16.0462 12.1448C16.1096 12.0867 16.1453 12.0077 16.1453 11.9257L16.1449 10.3338C16.1449 10.1627 15.9938 10.0239 15.8068 10.0239Z" fill="black"/>
</svg>
