<svg width="14" height="25" viewBox="0 0 14 25" fill="none" xmlns="http://www.w3.org/2000/svg">
<path d="M10.2021 15.4316C10.2021 16.5918 9.7832 17.5059 8.94531 18.1738C8.11328 18.8418 6.95312 19.1758 5.46484 19.1758C4.09375 19.1758 2.88086 18.918 1.82617 18.4023V15.8711C2.69336 16.2578 3.42578 16.5303 4.02344 16.6885C4.62695 16.8467 5.17773 16.9258 5.67578 16.9258C6.27344 16.9258 6.73047 16.8115 7.04688 16.583C7.36914 16.3545 7.53027 16.0146 7.53027 15.5635C7.53027 15.3115 7.45996 15.0889 7.31934 14.8955C7.17871 14.6963 6.9707 14.5059 6.69531 14.3242C6.42578 14.1426 5.87207 13.8525 5.03418 13.4541C4.24902 13.085 3.66016 12.7305 3.26758 12.3906C2.875 12.0508 2.56152 11.6553 2.32715 11.2041C2.09277 10.7529 1.97559 10.2256 1.97559 9.62207C1.97559 8.48535 2.35938 7.5918 3.12695 6.94141C3.90039 6.29102 4.9668 5.96582 6.32617 5.96582C6.99414 5.96582 7.62988 6.04492 8.2334 6.20312C8.84277 6.36133 9.47852 6.58398 10.1406 6.87109L9.26172 8.98926C8.57617 8.70801 8.00781 8.51172 7.55664 8.40039C7.11133 8.28906 6.67188 8.2334 6.23828 8.2334C5.72266 8.2334 5.32715 8.35352 5.05176 8.59375C4.77637 8.83398 4.63867 9.14746 4.63867 9.53418C4.63867 9.77441 4.69434 9.98535 4.80566 10.167C4.91699 10.3428 5.09277 10.5156 5.33301 10.6855C5.5791 10.8496 6.15625 11.1484 7.06445 11.582C8.26562 12.1562 9.08887 12.7334 9.53418 13.3135C9.97949 13.8877 10.2021 14.5938 10.2021 15.4316Z" fill="black"/>
<rect y="12" width="14" height="2" fill="black"/>
</svg>
