<svg width="16" height="12" viewBox="0 0 16 12" fill="none" xmlns="http://www.w3.org/2000/svg">
<path d="M15.301 0.381714H4.43832C4.25566 0.381714 4.10742 0.5059 4.10742 0.658915V2.15012C4.10742 2.30314 4.25566 2.42732 4.43832 2.42732H15.301C15.4836 2.42732 15.6319 2.30314 15.6319 2.15012V0.658915C15.6319 0.5059 15.4838 0.381714 15.301 0.381714Z" fill="black"/>
<path d="M15.301 5.04367H4.43832C4.25566 5.04367 4.10742 5.16786 4.10742 5.32087V6.81235C4.10742 6.96537 4.25566 7.08956 4.43832 7.08956H15.301C15.4836 7.08956 15.6319 6.96537 15.6319 6.81235V5.32087C15.6319 5.16772 15.4838 5.04367 15.301 5.04367Z" fill="black"/>
<path d="M15.301 9.8465H4.43832C4.25566 9.8465 4.10742 9.97068 4.10742 10.1237V11.6149C4.10742 11.7679 4.25566 11.8921 4.43832 11.8921H15.301C15.4836 11.8921 15.6319 11.7679 15.6319 11.6149V10.1237C15.6319 9.97054 15.4838 9.8465 15.301 9.8465Z" fill="black"/>
<path d="M0.304846 0.975333C0.37483 0.982402 0.445146 0.964245 0.497924 0.925437L0.649143 0.814695V2.61276C0.649143 2.72752 0.760324 2.82066 0.897315 2.82066H1.1531C1.29009 2.82066 1.40127 2.72752 1.40127 2.61276V0.207901C1.40127 0.0931397 1.29009 0 1.1531 0H0.88987C0.830971 0 0.773891 0.0176023 0.728889 0.0496191L0.0872814 0.507417C-0.0101676 0.576856 -0.0285323 0.697162 0.0449267 0.785034L0.131291 0.888292C0.172156 0.936664 0.235027 0.968265 0.304846 0.975333Z" fill="black"/>
<path d="M0.420771 4.63382C0.313727 4.6657 0.246058 4.75468 0.256978 4.84949L0.272861 4.98795C0.280802 5.05683 0.328948 5.11796 0.401579 5.15094C0.474046 5.18393 0.561568 5.18462 0.634696 5.15247C0.829924 5.06723 0.952852 5.04505 1.11813 5.07846C1.2356 5.10105 1.31469 5.15968 1.35605 5.24824C1.41859 5.40666 1.4214 5.65808 0.88386 6.20084L0.469248 6.61609C0.371799 6.71145 0.305454 6.77119 0.253834 6.81069C0.202215 6.85005 0.173096 6.90604 0.173096 6.96412V7.16855C0.173096 7.28332 0.284277 7.37646 0.421268 7.37646H1.93214C2.06913 7.37646 2.18031 7.28332 2.18031 7.16855V7.06072C2.18031 6.94596 2.06913 6.85282 1.93214 6.85282H1.14047C1.21625 6.78144 1.31204 6.68498 1.42438 6.56689C1.88813 6.08622 2.26171 5.64589 2.13448 5.12877C2.08336 4.89703 1.92817 4.71768 1.68264 4.60874C1.54598 4.54997 1.37177 4.52017 1.16529 4.52017C0.930848 4.52017 0.666462 4.5605 0.420771 4.63382Z" fill="black"/>
<path d="M1.73539 10.4573C1.77676 10.4386 1.81597 10.4172 1.85783 10.3903C2.14206 10.2084 2.1558 9.92811 2.15332 9.85188C2.15315 9.59159 2.03552 9.392 1.79495 9.2419C1.62521 9.13518 1.37571 9.07877 1.07344 9.07877C0.850577 9.07877 0.612332 9.10815 0.402213 9.16137C0.291693 9.18937 0.219062 9.27766 0.226341 9.37385L0.235937 9.49582C0.241066 9.5611 0.282263 9.62 0.347284 9.6559C0.412471 9.6918 0.493871 9.70011 0.566834 9.67794C0.709781 9.63539 0.826753 9.61557 0.934625 9.61557C0.972512 9.61557 1.01023 9.6182 1.05408 9.6243C1.2096 9.6419 1.31267 9.70039 1.36843 9.80212C1.40764 9.8742 1.39986 10.0024 1.3547 10.0634C1.24649 10.2039 0.951335 10.2321 0.78506 10.2366C0.651047 10.24 0.544664 10.332 0.544664 10.4443V10.5355C0.544664 10.6502 0.658326 10.7434 0.795317 10.7434C1.0559 10.7434 1.17767 10.7862 1.22482 10.8106C1.34676 10.875 1.40102 10.9551 1.40119 11.0764C1.40532 11.2028 1.34361 11.299 1.2144 11.3704C1.04663 11.4606 0.777614 11.4601 0.469054 11.3748C0.396588 11.3546 0.317172 11.3635 0.25364 11.3991C0.190108 11.4344 0.149574 11.4922 0.143617 11.556L0.132367 11.6768C0.123764 11.768 0.187461 11.8533 0.289212 11.8868C0.34381 11.9048 0.380374 11.9122 0.4583 11.9258C0.600089 11.9529 0.762724 11.9676 0.928503 11.9676C1.17552 11.9676 1.63133 11.9334 1.91193 11.7016C2.18607 11.4674 2.23852 11.132 2.17003 10.9076C2.09028 10.6219 1.89588 10.5169 1.73539 10.4573Z" fill="black"/>
</svg>
