<svg width="8" height="7" viewBox="0 0 8 7" fill="none" xmlns="http://www.w3.org/2000/svg">
<path d="M3.18924 1.38994C3.38777 1.30668 3.47103 1.06973 3.38137 0.877607L3.06757 0.217984C2.97791 0.0323293 2.76017 -0.0509882 2.56805 0.0323293C2.0237 0.262877 1.5562 0.56387 1.18476 0.928904C0.730068 1.35792 0.422671 1.85103 0.256164 2.39538C0.0896575 2.9462 0 3.69541 0 4.64963V6.61569C0 6.82702 0.172911 6.99993 0.384246 6.99993H2.90106C3.1124 6.99993 3.28531 6.82702 3.28531 6.61569V4.09887C3.28531 3.88747 3.1124 3.71463 2.90106 3.71463H1.69709C1.7099 3.06775 1.86359 2.54908 2.14538 2.15836C2.37592 1.84469 2.72175 1.58853 3.18924 1.38994Z" fill="black"/>
<path d="M7.7108 1.38994C7.90932 1.30669 7.99251 1.06974 7.90292 0.877614L7.58912 0.224459C7.49946 0.0387399 7.28172 -0.0445135 7.0896 0.0387399C6.55165 0.269288 6.09049 0.570281 5.71271 0.928911C5.25796 1.36439 4.94422 1.85751 4.77765 2.40185C4.61114 2.93974 4.52795 3.68908 4.52795 4.6497V6.61576C4.52795 6.82709 4.70087 7 4.9122 7H7.42901C7.64035 7 7.81326 6.82709 7.81326 6.61576V4.09894C7.81326 3.88754 7.64035 3.7147 7.42901 3.7147H6.21864C6.23145 3.06782 6.38521 2.54915 6.66693 2.15844C6.89747 1.8447 7.2433 1.58853 7.7108 1.38994Z" fill="black"/>
</svg>
