<svg width="15" height="15" viewBox="0 0 15 15" fill="none" xmlns="http://www.w3.org/2000/svg">
<path fill-rule="evenodd" clip-rule="evenodd" d="M3.125 2.5C2.77982 2.5 2.5 2.77982 2.5 3.125V11.875C2.5 12.2202 2.77982 12.5 3.125 12.5H11.875C12.2202 12.5 12.5 12.2202 12.5 11.875V3.125C12.5 2.77982 12.2202 2.5 11.875 2.5H3.125ZM1.25 3.125C1.25 2.08947 2.08947 1.25 3.125 1.25H11.875C12.9105 1.25 13.75 2.08947 13.75 3.125V11.875C13.75 12.9105 12.9105 13.75 11.875 13.75H3.125C2.08947 13.75 1.25 12.9105 1.25 11.875V3.125Z" fill="black"/>
<path fill-rule="evenodd" clip-rule="evenodd" d="M5.3125 5C5.13991 5 5 5.13991 5 5.3125C5 5.48509 5.13991 5.625 5.3125 5.625C5.48509 5.625 5.625 5.48509 5.625 5.3125C5.625 5.13991 5.48509 5 5.3125 5ZM3.75 5.3125C3.75 4.44956 4.44956 3.75 5.3125 3.75C6.17545 3.75 6.875 4.44956 6.875 5.3125C6.875 6.17545 6.17545 6.875 5.3125 6.875C4.44956 6.875 3.75 6.17545 3.75 5.3125Z" fill="black"/>
<path fill-rule="evenodd" clip-rule="evenodd" d="M9.55806 5.80806C9.80214 5.56398 10.1979 5.56398 10.4419 5.80806L13.5669 8.93306C13.811 9.17714 13.811 9.57286 13.5669 9.81694C13.3229 10.061 12.9271 10.061 12.6831 9.81694L10 7.13388L3.56694 13.5669C3.32286 13.811 2.92714 13.811 2.68306 13.5669C2.43898 13.3229 2.43898 12.9271 2.68306 12.6831L9.55806 5.80806Z" fill="black"/>
</svg>
