<svg width="18" height="17" viewBox="0 0 18 17" fill="none" xmlns="http://www.w3.org/2000/svg">
<path fill-rule="evenodd" clip-rule="evenodd" d="M6.75 2.83333C6.75 2.44213 7.08579 2.125 7.5 2.125H14.25C14.6642 2.125 15 2.44213 15 2.83333C15 3.22453 14.6642 3.54167 14.25 3.54167H7.5C7.08579 3.54167 6.75 3.22453 6.75 2.83333Z" fill="black"/>
<path fill-rule="evenodd" clip-rule="evenodd" d="M3 14.1667C3 13.7755 3.33579 13.4583 3.75 13.4583H10.5C10.9142 13.4583 11.25 13.7755 11.25 14.1667C11.25 14.5579 10.9142 14.875 10.5 14.875H3.75C3.33579 14.875 3 14.5579 3 14.1667Z" fill="black"/>
<path fill-rule="evenodd" clip-rule="evenodd" d="M11.5133 2.17011C11.9011 2.30747 12.0976 2.71576 11.9522 3.08205L7.45221 14.4154C7.30677 14.7817 6.87446 14.9673 6.48662 14.8299C6.09878 14.6925 5.90227 14.2843 6.04771 13.918L10.5477 2.58463C10.6932 2.21834 11.1255 2.03275 11.5133 2.17011Z" fill="black"/>
</svg>
