<svg width="17" height="17" viewBox="0 0 17 17" fill="none" xmlns="http://www.w3.org/2000/svg">
<path fill-rule="evenodd" clip-rule="evenodd" d="M4.25 5.66667C3.49855 5.66667 2.77788 5.96518 2.24653 6.49653C1.71518 7.02788 1.41667 7.74855 1.41667 8.5C1.41667 9.25145 1.71518 9.97212 2.24653 10.5035C2.50963 10.7666 2.82197 10.9753 3.16573 11.1177C3.50949 11.26 3.87792 11.3333 4.25 11.3333H6.375C6.7662 11.3333 7.08333 11.6505 7.08333 12.0417C7.08333 12.4329 6.7662 12.75 6.375 12.75H4.25C3.69188 12.75 3.13923 12.6401 2.6236 12.4265C2.10796 12.2129 1.63944 11.8999 1.2448 11.5052C0.447767 10.7082 0 9.62717 0 8.5C0 7.37283 0.447767 6.29183 1.2448 5.4948C2.04183 4.69777 3.12283 4.25 4.25 4.25H6.375C6.7662 4.25 7.08333 4.56713 7.08333 4.95833C7.08333 5.34953 6.7662 5.66667 6.375 5.66667H4.25ZM9.91667 4.95833C9.91667 4.56713 10.2338 4.25 10.625 4.25H12.75C13.3081 4.25 13.8608 4.35993 14.3764 4.57351C14.892 4.78709 15.3606 5.10015 15.7552 5.4948C16.1499 5.88944 16.4629 6.35796 16.6765 6.8736C16.8901 7.38923 17 7.94188 17 8.5C17 9.05812 16.8901 9.61077 16.6765 10.1264C16.4629 10.642 16.1499 11.1106 15.7552 11.5052C15.3606 11.8999 14.892 12.2129 14.3764 12.4265C13.8608 12.6401 13.3081 12.75 12.75 12.75H10.625C10.2338 12.75 9.91667 12.4329 9.91667 12.0417C9.91667 11.6505 10.2338 11.3333 10.625 11.3333H12.75C13.1221 11.3333 13.4905 11.26 13.8343 11.1177C14.178 10.9753 14.4904 10.7666 14.7535 10.5035C15.0166 10.2404 15.2253 9.92803 15.3677 9.58427C15.51 9.24051 15.5833 8.87208 15.5833 8.5C15.5833 8.12792 15.51 7.75949 15.3677 7.41573C15.2253 7.07197 15.0166 6.75963 14.7535 6.49653C14.4904 6.23343 14.178 6.02473 13.8343 5.88234C13.4905 5.73995 13.1221 5.66667 12.75 5.66667H10.625C10.2338 5.66667 9.91667 5.34953 9.91667 4.95833Z" fill="black"/>
<path fill-rule="evenodd" clip-rule="evenodd" d="M4.95833 8.5C4.95833 8.1088 5.27547 7.79167 5.66667 7.79167H11.3333C11.7245 7.79167 12.0417 8.1088 12.0417 8.5C12.0417 8.8912 11.7245 9.20833 11.3333 9.20833H5.66667C5.27547 9.20833 4.95833 8.8912 4.95833 8.5Z" fill="black"/>
</svg>
